<svg xmlns="http://www.w3.org/2000/svg" viewBox="0 0 2054.38 1325.61"><defs><style>.cls-1{fill:#f9d2ad;}.cls-2{fill:#d88731;}</style></defs><title>Asset 11</title><g id="Layer_2" data-name="Layer 2"><g id="DIELINE"><path class="cls-1" d="M2050.92,887.56a689.1,689.1,0,0,1-14.71,80.4c-8.52,34.8-24.85,66-45.26,95.44s-44.09,55.43-70.43,79.27a218.51,218.51,0,0,1-33.32,25.4,686.44,686.44,0,0,1-102.79,51c-43.75,17.28-88.08,32.58-133.79,43.85-22,5.44-44.07,11-65.89,17.22-23.54,6.73-47.32,12.45-71.33,16.84-22.7,4.16-45.68,7-68.46,10.66-33.8,5.49-249.31,11.13-283.44,13.56-31.82,2.26-63.75,3-95.64,4.12-37.22,1.27-379.84-1.6-416.94-4-12.82-.81-25.64-2.1-38.37-3.86-12.29-1.69-24.4-4.91-36.71-6.32-24.11-2.76-47.51-9.22-71.41-13-16.29-2.57-31.3-9.65-47.05-14.07-19.41-5.46-38.25-12.48-56.95-19.71-38-14.67-75.21-31.11-110.56-51.38-11.65-6.69-23.51-13.29-33.73-22.39-12.72-11.33-25.8-22.27-39.08-32.94a300.13,300.13,0,0,1-38.57-37.37c-17.21-19.8-33.44-40.47-51.15-59.8S94,1019.58,82.11,996.6a606.8,606.8,0,0,1-37.45-90.17C35.94,879.82,26.89,853.27,20.41,826c-7.12-29.92-12.78-60.1-15.35-90.93C3,710.5.72,686,.17,661.25c-.41-18.44-.21-37,2.08-55.08C5.06,584,10.69,562,16.68,540.35c8.14-29.4,21.21-57,34.88-84.14,3.32-6.6,5.35-14,10.34-19.7,14.94-17.12,27.37-36.19,42.92-52.93a429.6,429.6,0,0,1,44-41.23c20.51-16.66,42.56-31.35,64.66-45.92s44.13-29.35,68.71-39.27c23.49-9.47,46.76-19.53,70.66-28.09,22.48-8,45.07-15.52,68.48-20.07a1140.36,1140.36,0,0,0,116.84-29.16,253.26,253.26,0,0,1,52.62-9.9c18.27-1.57,36.25-5,54.57-6.33,22.36-1.57,44.69-4.57,67.1-5.77,20.07-1.07,345.69-1.92,365.78-2.61,26.44-.9,52.88-1.91,79.32-2.62,22.88-.62,227.4-.24,250.37,3.12,19.65,2.88,40,2.13,60.17,1.08,26.39-1.38,52.85-2.65,79.3-3,23.92-.33,47.45-2.46,70.62-8.76,28.1-7.65,55.52-17.15,82.73-27.48,24.35-9.23,48.09-19.86,72.17-29.71,1.66-2.14,4-2.68,6.51-2.72,2.59-1.05,5.25-1.94,7.75-3.16,19.65-9.62,40.6-16.18,60.29-25.75,22.06-10.7,45.63-17.61,68.45-26.39,20.58-7.93,40.79-16.81,61.77-23.7,11.09-3.63,22.62-4.38,34.08-5.85,11.17-1.44,19.06,2.8,21.6,13.72,4.17,18-.65,35.39-5.57,52.18-6.38,21.75-14.86,42.9-22.94,64.12-11.53,30.28-25.18,59.64-39.12,88.86-10.06,21.1-21.07,41.75-29.67,63.53a20.67,20.67,0,0,1-2.64,9.23c-2,10-5.38,19.91-5.14,30.16.45,18.12.88,36.26,2.38,54.36a166.5,166.5,0,0,0,12.19,51.42c4.67,11.06,12.09,20.79,15.06,32.71,4,15.94,13.34,29.46,20.54,43.94,11.37,22.83,19.15,47.07,26.15,71.38,12.38,43,27,85.43,36.65,129.29a538.79,538.79,0,0,1,13.07,108.38C2054.66,838.27,2053.94,862.87,2050.92,887.56Z"/><path class="cls-1" d="M2050.92,887.56a689.1,689.1,0,0,1-14.71,80.4c-8.52,34.8-24.85,66-45.26,95.44s-44.09,55.43-70.43,79.27a218.51,218.51,0,0,1-33.32,25.4,686.44,686.44,0,0,1-102.79,51c-43.75,17.28-88.08,32.58-133.79,43.85-22,5.44-44.07,11-65.89,17.22-23.54,6.73-47.32,12.45-71.33,16.84-22.7,4.16-45.68,7-68.46,10.66-33.8,5.49-249.31,11.13-283.44,13.56-31.82,2.26-63.75,3-95.64,4.12-37.22,1.27-379.84-1.6-416.94-4-12.82-.81-25.64-2.1-38.37-3.86-12.29-1.69-24.4-4.91-36.71-6.32-24.11-2.76-47.51-9.22-71.41-13-16.29-2.57-31.3-9.65-47.05-14.07-19.41-5.46-38.25-12.48-56.95-19.71-38-14.67-75.21-31.11-110.56-51.38-11.65-6.69-23.51-13.29-33.73-22.39-12.72-11.33-25.8-22.27-39.08-32.94a300.13,300.13,0,0,1-38.57-37.37c-17.21-19.8-33.44-40.47-51.15-59.8S94,1019.58,82.11,996.6a606.8,606.8,0,0,1-37.45-90.17C35.94,879.82,26.89,853.27,20.41,826c-7.12-29.92-12.78-60.1-15.35-90.93C3,710.5.72,686,.17,661.25c-.41-18.44-.21-37,2.08-55.08C5.06,584,10.69,562,16.68,540.35c8.14-29.4,21.21-57,34.88-84.14,3.32-6.6,5.35-14,10.34-19.7,14.94-17.12,27.37-36.19,42.92-52.93a429.6,429.6,0,0,1,44-41.23c20.51-16.66,42.56-31.35,64.66-45.92s44.13-29.35,68.71-39.27c23.49-9.47,46.76-19.53,70.66-28.09,22.48-8,45.07-15.52,68.48-20.07a1140.36,1140.36,0,0,0,116.84-29.16,253.26,253.26,0,0,1,52.62-9.9c18.27-1.57,36.25-5,54.57-6.33,22.36-1.57,44.69-4.57,67.1-5.77,20.07-1.07,345.69-1.92,365.78-2.61,26.44-.9,52.88-1.91,79.32-2.62,22.88-.62,227.4-.24,250.37,3.12,19.65,2.88,40,2.13,60.17,1.08,26.39-1.38,52.85-2.65,79.3-3,23.92-.33,47.45-2.46,70.62-8.76,28.1-7.65,55.52-17.15,82.73-27.48,24.35-9.23,48.09-19.86,72.17-29.71,1.66-2.14,4-2.68,6.51-2.72,2.59-1.05,5.25-1.94,7.75-3.16,19.65-9.62,40.6-16.18,60.29-25.75,22.06-10.7,45.63-17.61,68.45-26.39,20.58-7.93,40.79-16.81,61.77-23.7,11.09-3.63,22.62-4.38,34.08-5.85,11.17-1.44,19.06,2.8,21.6,13.72,4.17,18-.65,35.39-5.57,52.18-6.38,21.75-14.86,42.9-22.94,64.12-11.53,30.28-25.18,59.64-39.12,88.86-10.06,21.1-21.07,41.75-29.67,63.53a20.67,20.67,0,0,1-2.64,9.23c-2,10-5.38,19.91-5.14,30.16.45,18.12.88,36.26,2.38,54.36a166.5,166.5,0,0,0,12.19,51.42c4.67,11.06,12.09,20.79,15.06,32.71,4,15.94,13.34,29.46,20.54,43.94,11.37,22.83,19.15,47.07,26.15,71.38,12.38,43,27,85.43,36.65,129.29a538.79,538.79,0,0,1,13.07,108.38C2054.66,838.27,2053.94,862.87,2050.92,887.56Z"/><path class="cls-1" d="M2050.92,887.56a689.1,689.1,0,0,1-14.71,80.4c-8.52,34.8-24.85,66-45.26,95.44s-44.09,55.43-70.43,79.27a218.51,218.51,0,0,1-33.32,25.4,686.44,686.44,0,0,1-102.79,51c-43.75,17.28-88.08,32.58-133.79,43.85-22,5.44-44.07,11-65.89,17.22-23.54,6.73-47.32,12.45-71.33,16.84-22.7,4.16-45.68,7-68.46,10.66-33.8,5.49-249.31,11.13-283.44,13.56-31.82,2.26-63.75,3-95.64,4.12-37.22,1.27-379.84-1.6-416.94-4-12.82-.81-25.64-2.1-38.37-3.86-12.29-1.69-24.4-4.91-36.71-6.32-24.11-2.76-47.51-9.22-71.41-13-16.29-2.57-31.3-9.65-47.05-14.07-19.41-5.46-38.25-12.48-56.95-19.71-38-14.67-75.21-31.11-110.56-51.38-11.65-6.69-23.51-13.29-33.73-22.39-12.72-11.33-25.8-22.27-39.08-32.94a300.13,300.13,0,0,1-38.57-37.37c-17.21-19.8-33.44-40.47-51.15-59.8S94,1019.58,82.11,996.6a606.8,606.8,0,0,1-37.45-90.17C35.94,879.82,26.89,853.27,20.41,826c-7.12-29.92-12.78-60.1-15.35-90.93C3,710.5.72,686,.17,661.25c-.41-18.44-.21-37,2.08-55.08C5.06,584,10.69,562,16.68,540.35c8.14-29.4,21.21-57,34.88-84.14,3.32-6.6,5.35-14,10.34-19.7,14.94-17.12,27.37-36.19,42.92-52.93a429.6,429.6,0,0,1,44-41.23c20.51-16.66,42.56-31.35,64.66-45.92s44.13-29.35,68.71-39.27c23.49-9.47,46.76-19.53,70.66-28.09,22.48-8,45.07-15.52,68.48-20.07a1140.36,1140.36,0,0,0,116.84-29.16,253.26,253.26,0,0,1,52.62-9.9c18.27-1.57,36.25-5,54.57-6.33,22.36-1.57,44.69-4.57,67.1-5.77,20.07-1.07,345.69-1.92,365.78-2.61,26.44-.9,52.88-1.91,79.32-2.62,22.88-.62,227.4-.24,250.37,3.12,19.65,2.88,40,2.13,60.17,1.08,26.39-1.38,52.85-2.65,79.3-3,23.92-.33,47.45-2.46,70.62-8.76,28.1-7.65,55.52-17.15,82.73-27.48,24.35-9.23,48.09-19.86,72.17-29.71,2.06-1.18,4.53-1.36,6.51-2.72,2.59-1.05,5.25-1.94,7.75-3.16,19.65-9.62,40.6-16.18,60.29-25.75,22.06-10.7,45.63-17.61,68.45-26.39,20.58-7.93,40.79-16.81,61.77-23.7,11.09-3.63,22.62-4.38,34.08-5.85,11.17-1.44,19.06,2.8,21.6,13.72,4.17,18-.65,35.39-5.57,52.18-6.38,21.75-14.86,42.9-22.94,64.12-11.53,30.28-25.18,59.64-39.12,88.86-10.06,21.1-21.07,41.75-29.67,63.53-2,2.75-1.62,6.19-2.64,9.23-2,10-5.38,19.91-5.14,30.16.45,18.12.88,36.26,2.38,54.36a166.5,166.5,0,0,0,12.19,51.42c4.67,11.06,12.09,20.79,15.06,32.71,4,15.94,13.34,29.46,20.54,43.94,11.37,22.83,19.15,47.07,26.15,71.38,12.38,43,27,85.43,36.65,129.29a538.79,538.79,0,0,1,13.07,108.38C2054.66,838.27,2053.94,862.87,2050.92,887.56Z"/><path class="cls-1" d="M1936,282.68a20.67,20.67,0,0,1-2.64,9.23C1933.32,288.56,1933,285.13,1936,282.68Z"/><path class="cls-1" d="M1779.39,85.12c-1.62,2.22-3.94,2.75-6.51,2.72C1774.54,85.7,1776.86,85.16,1779.39,85.12Z"/><path class="cls-2" d="M685.17,561.36H685c-10.2,0-17-5.44-18.19-17.34-2.72-27-4.93-59.5-5.78-83.13-.51-15.13,4.76-18.7,18.19-19l8.5-.17c6.46-.17,10.2,4.08,10.54,11.9,1.19,29.24,2.38,61.88,4.25,88.06C703.36,553.71,697.24,561.36,685.17,561.36Z"/><path class="cls-2" d="M876.93,552.86c0,2.89-4.08,14.28-22.1,14.28-6.29,0-10.54-2.89-13.6-9.18-3.06-6.46-6-12.75-8.67-19.55a283.07,283.07,0,0,0-31.28.85c-1,4.93-2,9.86-2.72,14.79-1.87,11.9-8.67,17.51-20.4,16.66-12.24-.85-16.83-8.33-14.79-20.91,5.1-31.45,14.11-65.11,22.78-85.34,4.76-11,6.29-14.79,36.55-16.66,19.72-1.19,23.12,5.1,24.65,11.05.85,3.4,3.06,11.9,4.59,18.53,8.67,37.4,15.3,52.87,23.46,70.72C876.42,550.31,876.93,550.31,876.93,552.86ZM823.72,511c-2.38-9-4.59-19.38-6.63-31.45-3.06,10.2-6.29,20.74-9,31.28C813.35,510.87,818.79,510.87,823.72,511Z"/><path class="cls-2" d="M1028.23,562.55c-23.29,3.4-28.9-1.53-30.09-14.79l-4.59-53.38-11.39,17.85c-5.61,8.84-13.09,12.41-24.48,10.88-10.54-1.36-16.83-6.63-19.89-16.66l-9.69-32-8.67,64.43c-1.53,11.9-9,17.51-20.91,16.32s-17.51-8.5-15.47-20.91l13.43-81.6c2-12.92,5.44-16.15,15-16.66A127.2,127.2,0,0,1,944.76,439c5.44,1.19,8.16,4.42,11,12.58l11.39,33,21.08-31.45c4.42-6.63,8-10.88,26.35-7.31,7.82,1.53,12.07,5.95,12.75,14.11l8.5,91.8C1036.56,558.3,1034.86,561.53,1028.23,562.55Z"/><path class="cls-2" d="M1210.12,552.86c0,2.89-4.08,14.28-22.1,14.28-6.29,0-10.54-2.89-13.6-9.18-3.06-6.46-6-12.75-8.67-19.55a283.13,283.13,0,0,0-31.28.85c-1,4.93-2,9.86-2.72,14.79-1.86,11.9-8.67,17.51-20.39,16.66-12.24-.85-16.83-8.33-14.79-20.91,5.1-31.45,14.11-65.11,22.78-85.34,4.75-11,6.29-14.79,36.54-16.66,19.72-1.19,23.12,5.1,24.65,11.05.85,3.4,3.06,11.9,4.59,18.53,8.67,37.4,15.3,52.87,23.46,70.72C1209.61,550.31,1210.12,550.31,1210.12,552.86ZM1156.91,511c-2.38-9-4.59-19.38-6.63-31.45-3.06,10.2-6.28,20.74-9,31.28C1146.54,510.87,1152,510.87,1156.91,511Z"/><path class="cls-2" d="M1318.42,534.84c-2.89,12.92-9.86,17.68-23.12,19-15.81,1.7-24.48-2-29.75-11-7.82-13.26-18.7-47.09-22.44-61.71-.34,5.27.51,29.41,2.55,51,1,10.88-2.38,19-12.07,20.23-10.71,1.36-17.85-.17-18.87-12.75-2.55-32.47-2.21-55.25-.51-72.25,1.36-13.26,9.52-21.08,25.16-21.59,17.34-.51,24.31,2,30.6,16.32,6.46,14.62,9.18,25.33,17.51,50.32-.17-10.37-1.19-45.39-1-56.1.17-10,1.7-14.79,15.13-15.3,8.16-.34,16.66-.85,18.53,6.46C1324.88,466.33,1323.52,512.23,1318.42,534.84Z"/><path class="cls-2" d="M189,701.78c0-38.42,28.05-66.64,66.64-66.64s66.64,28.22,66.64,66.64-28.05,66.64-66.64,66.64S189,740.2,189,701.78Zm98.26-3.4c0-19.55-12.41-32.13-32.13-32.13-19.55,0-32.13,12.58-32.13,32.13s12.58,32.13,32.13,32.13C274.8,730.51,287.21,717.93,287.21,698.38Z"/><path class="cls-2" d="M424.39,770.63c-12.92,5.27-16.32,2.55-22.1-6.8-11.39-18.36-20.23-37.06-29.92-56.44l.68,39.61c.17,10.54-1.7,12.58-13.94,13.26C339.9,761.28,335,756,335,747.17l-.85-93.67c-.17-8.5,3.57-12.07,13.09-12.92,0-7,4.08-10.2,20.06-10.54,47.26-1,68.68,12.24,68.68,42.5,0,19-10.2,29.58-25.84,33.83,7.82,13.26,15.47,27.54,23.63,42.67C438,757,437.65,765.19,424.39,770.63ZM369.82,657.07l1.53,28.9c13.26.17,27.2-1.36,27.2-13.43,0-9.18-7-15.13-24.48-15.47Z"/><path class="cls-2" d="M560.22,716.57c0,10.88-5.1,15.3-13.94,15l-5.27-.17c3.57,3.74,5.61,8.84,5.1,15.81-1.19,17.17-16.49,24.31-39.1,25.16-44.71,1.7-65.28-17.51-62.56-60.52,2.72-42.16,31.79-63.41,73.61-60.52,22.1,1.53,35.36,6.63,30.94,26.86-1.7,7.82-7,9.52-9.69,9.35a97.45,97.45,0,0,0-14.62-2.21c-27.37-1.87-41.82,9.18-43.18,32.47-1.19,21.59,7.14,26,24,26,8,0,12.24-2.89,12.24-7.14,0-2.89-1.7-4.93-6.12-6.29-4.76-1.36-6.12-6.46-4.76-17.17.85-6.29,3.91-8.5,10-8.5l30.26-.34C555.8,704.16,560.22,709.43,560.22,716.57Z"/><path class="cls-2" d="M677.86,747.17c0,2.89-.68,14.11-18,13.09-6.29-.34-11.73-3.4-13.26-10-1-4.59-2-9.86-3.06-15.64l-41-2.89c-1,3.74-2,7.48-2.89,11.22-2.72,11.73-9.86,17.17-21.59,15.3-12.07-1.87-17.85-9.69-15-22.1,7.14-30.94,21.76-63.92,32-83.3,5.61-10.71,10-17.34,38.42-15,19.72,1.7,21.42,8.5,23.8,14.45,4.93,12.41,16.49,67.32,19.72,88.4C677.35,742.92,677.86,746.32,677.86,747.17Zm-40.8-47.43c-2.21-10-5.27-21.42-9.18-34.51-5.27,11.39-9.86,22.44-13.94,33Z"/><path class="cls-2" d="M812.16,748c-5.44,11.9-11.9,17.68-29.41,18.19-13.94.34-22.1-3.23-27.2-13.26-8-15.81-24.14-62.05-31.45-78.2-.68,5.61-.85,41.65.51,65.28.68,12.07-3.23,19.55-15.13,21.76-13.43,2.55-20.57-.85-22.1-14.79-3.91-35.87-.68-68.51,4.42-86.87,3.57-12.58,11.05-18.87,28.39-18.87,16.83,0,25.33,3.23,29.92,11.73,12.07,22.61,20.06,49,32.64,81.77,2.21-13.43,3.4-54.57.51-76-.85-6.46.68-11.56,17.51-16.15,10.71-2.89,16.15-1.87,17.68,4.59C826.61,680.7,823.21,724.05,812.16,748Z"/><path class="cls-2" d="M858.4,756.52h-.17c-10.2,0-18.7-5.44-19.89-17.34-2.72-27-1.53-60.18-.68-83.81.51-15.13,4.76-20.06,19-19l6.8.51c6.46.51,10.2,4.08,10.54,11.9,1.19,29.24,2.38,61.88,4.25,88.06C879.14,748.87,869.62,756.52,858.4,756.52Z"/><path class="cls-2" d="M978.93,732c7.48,0,16.32,5.27,16.32,12.58,0,15.47-21.76,25.84-44.71,25.84-38.59,0-62-24.65-62-61.88,0-38.42,29.07-62.39,67.32-62.39,18.7,0,33,5.95,26.86,28.22-.51,1.87-2,8.84-10.2,8.84-24.82,0-46.58,3.91-46.58,33.83,0,13.6,8.67,26.18,26.35,26.18,6.8,0,13.09-1.7,17-5.61C972.64,734.25,975.19,732,978.93,732Z"/><path class="cls-2" d="M1194.49,741.9c-.68,8.16-4.93,12.58-12.75,14.11-18.36,3.57-21.76-1-26.35-7.31l-24.48-33.15-11.39,34.68c-2.72,8.16-5.61,11-11,12.58-9.52,2.72-20.57,3.4-29.92,2.89-9.52-.51-12.92-3.74-15-16.66l-13.43-81.6c-2.38-14.11,1.87-19.55,18.87-21.25,12.41-1.19,15.64,3.06,17.51,16.66l8.67,64.43,9.69-32c3.06-10,7.65-15.13,19.89-16.66,13.09-1.7,18.87,2,24.48,10.88l11.39,17.85,4.59-53.38c1.19-13.26,6.8-18.36,30.09-14.79,6.63,1,8.32,4.25,7.65,10.88Z"/><path class="cls-2" d="M1257.05,673.39,1255.52,698l20.57-.34c4.25,0,6,2.38,7.31,20.23.34,4.42-2.21,7-6.63,7l-23.12.34-1.19,18.19,27.2,1.36c8.84.51,13.6,4.59,13.77,13.43s-2.72,14.79-9.86,15.47c-17,1.7-34,.68-54.4-2.89-8.84-1.53-13.77-4.76-13.26-13.94l2-31.79c-5.78-1.19-7.82-4.93-8-12.92-.17-7.65,3.23-12.07,9.69-13.43l2.72-41.82c.34-6.46,4.25-9.86,10.71-9.69l54.4,1.87c6.63.17,8.5,3.91,8.16,10.54-.68,13.26-4.42,17.17-10.88,16.49Z"/><path class="cls-2" d="M1393.22,744.28c.85,15.64-5.78,24.82-17.85,25.33l-46.92,2c-12.24.51-17.85-6.29-19-18.53a876,876,0,0,1-4.25-94.35c.17-10,3.74-13.09,13.77-14.28,16.83-2,20.57,3.23,20.23,13.26a528,528,0,0,0,2.72,73.27l32.13-1.36C1386.08,729.15,1392.71,734.25,1393.22,744.28Z"/><path class="cls-2" d="M1436.91,664.38l.34,21.59c9.68-.17,19.37-.51,29.06-1.19,4.42-.34,8.67,2,9,8.16.85,16.32-5.27,18.36-11.39,19.21a124.24,124.24,0,0,1-26.35.68l.35,27.37c.17,15-4.42,18.7-16,18.7-16.83,0-21.42-4.42-21.08-16.32l2.21-92.31c.34-12.07,7.31-18.36,24.48-17.85,12.23.34,26.17.85,38.41,1.53,8.84.51,11.73,5.27,11.39,13.94-.51,11.56-5.27,15.47-17.51,15.81Z"/><path class="cls-2" d="M1586.67,756.86c0,2.89-4.08,14.28-22.1,14.28-6.29,0-10.54-2.89-13.6-9.18-3.06-6.46-6-12.75-8.67-19.55a283.07,283.07,0,0,0-31.28.85c-1,4.93-2,9.86-2.72,14.79-1.87,11.9-8.67,17.51-20.4,16.66-12.24-.85-16.83-8.33-14.79-20.91,5.1-31.45,14.11-65.11,22.78-85.34,4.76-11.05,6.29-14.79,36.55-16.66,19.72-1.19,23.12,5.1,24.65,11.05.85,3.4,3.06,11.9,4.59,18.53,8.67,37.4,15.3,52.87,23.46,70.72C1586.16,754.31,1586.67,754.31,1586.67,756.86ZM1533.46,715c-2.38-9-4.59-19.38-6.63-31.45-3.06,10.2-6.29,20.74-9,31.28C1523.09,714.87,1528.53,714.87,1533.46,715Z"/><path class="cls-2" d="M1674.9,759.41c-6.12,1.87-10.71.51-16.32-4.25-10.2-8.67-20.23-17.17-28.73-24.65l-.34,14.11c-.17,8.84-5.1,13.6-13.94,13.26l-5.44-.17c-8.67-.34-13.43-4.59-13.6-13.43l-1.7-77c-.34-10.2,4.25-16.66,13.09-18.19.85-5.61,5.61-8.16,19.89-8.5,38.76-1,60.18,12.24,60.18,42.5,0,17.85-9.86,28.39-25.67,32.3,7.82,6,16.49,12.24,23.63,16.83,6.12,3.91,6.8,5.44,7.14,6.29C1694.11,741.22,1691.56,754.31,1674.9,759.41Zm-43.69-91.8-.68,31.28c14.11,1.7,28.56.51,28.56-14.62,0-10.37-7-16.32-24.48-16.66Z"/><path class="cls-2" d="M1786.08,767.06c-11.56,2-33.66,2.89-51.17,2.89-25.16,0-31.28-9.86-31.28-29.75,0-27.2.85-50.66,1.53-70.38l.51-13.6c.51-12.07,7.14-17.85,19.21-18.19,5.44-.17,10.71-.17,16.15-.17,11.39,0,23,.17,34.34.85,6.12.34,10.2,2.55,10,8.67-.51,16.32-2.89,18.7-15.81,18.36l-26.86-.68c0,2.38-.34,11.56-.68,23.29l18.36-1.19c10.37-.68,13.94,2.21,14.62,12.58.51,8.84-3.74,14.45-12.58,14.62l-21.08.34c-.17,7.82-.34,15.47-.34,22.27,12.58,1,34.34-1,42.84-1,7,0,12.58,4.25,13.09,13.43C1797.64,760.09,1796.62,765.19,1786.08,767.06Z"/><path class="cls-2" d="M440,969.19l-8.5.17c-6.46.17-10.2-4.08-10.54-11.9l-1-24v1.19l-44-1.53,1,16.49c.85,12.07-5.27,19.72-17.34,19.72h-.17c-10.2,0-17-5.44-18.19-17.34-2.72-27-4.93-59.5-5.78-83.13-.51-15.13,4.76-18.7,18.19-19l8.5-.17c6.46-.17,10.2,4.08,10.54,11.9.51,14.28,1.19,29.41,1.87,44.2l44.37,1.53c-.68-13.26-1.36-26.18-2.21-37.91-.85-12.07,5.27-19.72,17.34-19.72h.17c10.2,0,17,5.44,18.19,17.34,2.72,27,4.93,59.5,5.78,83.13C458.65,965.28,453.38,968.85,440,969.19Z"/><path class="cls-2" d="M550.11,961.37c-14.79.34-20.57-.51-22.44-11.9-.51-3.4-1-7-1.7-10.54l-25-.68a23.23,23.23,0,0,0-.34,3.23c-1,12.92-8,18-24.31,17.17-12.75-.68-12.07-10.88-11.73-17.51,1.36-25,3.57-50.15,9.86-75.14,5.27-20.74,8.33-25.16,35.53-25.67,25.33-.51,30.26,1.19,33.15,9.35a393.12,393.12,0,0,1,19.38,84C564.56,950.83,564.9,961,550.11,961.37Zm-27.71-44.2a283.89,283.89,0,0,0-11.73-46.24c-3.06,17-5.44,32.47-7.31,46.07Z"/><path class="cls-2" d="M675.23,895.24c-2.21,33-27.88,41.82-60.86,38.93l1.53,27c.85,12.07-8.67,19.72-19.89,19.72h-.17c-10.2,0-17-5.44-18-17.34-2-25.16-1.87-57-1.19-80.58-6.63-1.7-10.2-7-10.71-17.34-.51-10.88,3.06-14.62,15.13-17C634.09,838.12,678.12,853.76,675.23,895.24Zm-62.9-13.6c.34,9.86.68,20.23,1.19,30.77,21.59,2.21,30.09-3.23,30.6-10.71C645,889,630.52,882.66,612.33,881.64Z"/><path class="cls-2" d="M723,941.31c.34,5.44.51,10.54.85,15.3.51,9-5.78,14.11-18,14.79-12.07.68-18.7-4.25-19.21-13.26-.34-5.1-.51-10.71-.68-16.83h-.68c-8.16-1-11-4.76-12.41-16.32-1.19-9.69,4.08-13.26,12.58-13.26-.17-16.32-.17-33.83-.17-50.15,0-18.53,16-20.57,33.83-20.57,31.79,0,57.12,15.47,57.12,50C776.21,921.42,753.26,937.06,723,941.31Zm17.51-52c0-18-8.5-24.65-19.55-25.33,0,15.13.34,30.94.85,46.07C737.28,907.31,740.51,900.85,740.51,889.29Z"/><path class="cls-2" d="M887.39,868c-11.73,20.74-24,36.38-36.38,49l1.19,43.35c.17,6.63-3.74,9.69-10.37,10-23.63,1.19-26.86-1.53-27-8.16l-1.19-48.28-32-43c-4.08-5.44-2.89-11.9,9.18-19.55,10.71-6.8,15.3-5.44,19.21-.17l24.48,33.32a183,183,0,0,0,24.82-34.68c5.27-9.52,11.39-11.56,25.16-6.12C894.53,847.64,893.34,857.67,887.39,868Z"/><path class="cls-2" d="M1036.81,936c7.48,0,16.32,5.27,16.32,12.58,0,15.47-21.76,25.84-44.71,25.84-38.59,0-62-24.65-62-61.88,0-38.42,29.07-62.39,67.32-62.39,18.7,0,33,5.95,26.86,28.22-.51,1.87-2,8.84-10.2,8.84-24.82,0-46.58,3.91-46.58,33.83,0,13.6,8.67,26.18,26.35,26.18,6.8,0,13.09-1.7,17-5.61C1030.52,938.25,1033.07,936,1036.81,936Z"/><path class="cls-2" d="M1161.25,969.19l-8.5.17c-6.46.17-10.2-4.08-10.54-11.9l-1-24v1.19l-44-1.53,1,16.49c.85,12.07-5.27,19.72-17.34,19.72h-.17c-10.2,0-17-5.44-18.19-17.34-2.72-27-4.93-59.5-5.78-83.13-.51-15.13,4.76-18.7,18.19-19l8.5-.17c6.46-.17,10.2,4.08,10.54,11.9.51,14.28,1.19,29.41,1.87,44.2l44.37,1.53c-.68-13.26-1.36-26.18-2.21-37.91-.85-12.07,5.27-19.72,17.34-19.72h.17c10.2,0,17,5.44,18.19,17.34,2.72,27,4.93,59.5,5.78,83.13C1180,965.28,1174.68,968.85,1161.25,969.19Z"/><path class="cls-2" d="M1211.4,960.52h-.17c-10.2,0-18.7-5.44-19.89-17.34-2.72-27-1.53-60.18-.68-83.81.51-15.13,4.76-20.06,19-19l6.8.51c6.46.51,10.2,4.08,10.54,11.9,1.19,29.24,2.38,61.88,4.25,88.06C1232.14,952.87,1222.62,960.52,1211.4,960.52Z"/><path class="cls-2" d="M1331.93,936c7.48,0,16.32,5.27,16.32,12.58,0,15.47-21.76,25.84-44.71,25.84-38.59,0-62-24.65-62-61.88,0-38.42,29.07-62.39,67.32-62.39,18.7,0,33,5.95,26.86,28.22-.51,1.87-2,8.84-10.2,8.84-24.82,0-46.58,3.91-46.58,33.83,0,13.6,8.67,26.18,26.35,26.18,6.8,0,13.09-1.7,17-5.61C1325.64,938.25,1328.19,936,1331.93,936Z"/><path class="cls-2" d="M1441.07,960.69c-6.12,1.19-10.37-1-15.13-6.46-10.54-11.9-21.25-23.8-33.66-37.4-.68,9.35-1.53,18.87-2.55,28.39-1.19,11.9-6.29,17.51-20.06,17.34-8.67-.17-13.09-7.65-12.24-19.72,1.53-21.08,1.53-53.72.85-83-.17-7.82,4.08-12.24,13.94-11.9l5.1.17c13.43.51,18.7,3.91,18.19,19-.17,5.44-.51,11.22-.85,17l36.72-31.45c8.16-7,15.47-8.84,20.57-1.7,7.65,10.54,6.46,16.15-2.89,23.12l-29.24,22.1c13.77,14.79,25.84,26.86,34,35.53,4.93,5.27,6.12,6.46,6.29,7.14C1460.79,941.82,1458.07,957.46,1441.07,960.69Z"/><path class="cls-2" d="M1554.63,971.06c-11.56,2-33.66,2.89-51.17,2.89-25.16,0-31.28-9.86-31.28-29.75,0-27.2.85-50.66,1.53-70.38l.51-13.6c.51-12.07,7.14-17.85,19.21-18.19,5.44-.17,10.71-.17,16.15-.17,11.39,0,23,.17,34.34.85,6.12.34,10.2,2.55,10,8.67-.51,16.32-2.89,18.7-15.81,18.36l-26.86-.68c0,2.38-.34,11.56-.68,23.29l18.36-1.19c10.37-.68,13.94,2.21,14.62,12.58.51,8.84-3.74,14.45-12.58,14.62l-21.08.34c-.17,7.82-.34,15.47-.34,22.27,12.58,1,34.34-1,42.84-1,7,0,12.58,4.25,13.09,13.43C1566.19,964.09,1565.17,969.19,1554.63,971.06Z"/><path class="cls-2" d="M1691.31,947.94c-3.06,12.58-10.54,18.7-28,20.23-13.94,1.19-23.8-.51-29.41-16-8.33-23.12-17.51-51.68-25.33-81.43-.17,5.61,2,41.65,5.1,65.11,1.53,11.9-1.53,21.25-13.6,22.78-13.09,1.7-20.91-1-23-15-4.93-33.83-3.91-66.64-1.7-85.34,1.53-12.92,9.69-19.55,27-20.74,16.66-1.19,27.2.51,32.13,14.28,8.67,24.31,18,54.23,26.52,84.83,1.36-13.6-.34-54.74-4.76-75.82-1.36-6.46-1.19-17,16.32-17.34,10.54-.17,16.49.34,18,6.8C1698.28,883,1697.26,923.29,1691.31,947.94Z"/></g></g></svg>