<svg xmlns="http://www.w3.org/2000/svg" viewBox="0 0 104.35 73.23"><defs><style>.cls-1{fill:#fff;}</style></defs><title>Asset 8</title><g id="Layer_2" data-name="Layer 2"><g id="DIELINE"><path class="cls-1" d="M96.46,69.38C97.64,65.93,93.76,61.19,86,59c-6.24-1.78-16.79-4.2-28.69-8.48C72,46.9,87.11,42.37,94.8,39.91c5.83-1.9,11-6.23,9.19-11.23-1.27-3.36-7.7-3.77-13.9-1.75-7.59,2.71-20.69,7.7-36.53,12.36,7.29-10.28,14.77-19,19.24-25C76.63,9,77,2.85,73.9.66c-2.8-2-8.84.8-12.35,5.29-6.23,8.25-16,22.6-25.07,37.28A200,200,0,0,1,9.27,50.54C1.35,52.15-.38,55.13.06,58.6c.92,7.06,5.85,8.4,12.6,7,7.49-1.52,18.78-5.22,28.42-8.65,15.23,6.52,32.33,13,41.86,15.59C88.79,74.11,95.21,73,96.46,69.38Z"/></g></g></svg>